<?xml version="1.0" encoding="utf-8"?>
<!-- Generator: Adobe Illustrator 16.0.0, SVG Export Plug-In . SVG Version: 6.00 Build 0)  -->
<!DOCTYPE svg PUBLIC "-//W3C//DTD SVG 1.1//EN" "http://www.w3.org/Graphics/SVG/1.1/DTD/svg11.dtd">
<svg version="1.1" xmlns="http://www.w3.org/2000/svg" xmlns:xlink="http://www.w3.org/1999/xlink" x="0px" y="0px" width="675px"
	 height="1000px" viewBox="0 0 675 1000" enable-background="new 0 0 675 1000" xml:space="preserve">
<g id="Layer_2" display="none">
	<path display="inline" fill="#010101" d="M285.896,269.72c-9.723,1.58-19.042,5.61-29.792,12.771
		c-27.366,18.24-35.876,47.08-38.572,58.89c-0.117,0.551-0.429,1.045-0.881,1.4c-4.212,3.264-7.625,7.386-9.992,12.07
		c-5.536,11,0.766,25.22,2.768,30.12c0.151,0.374,0.206,0.777,0.161,1.176c-0.046,0.398-0.189,0.781-0.42,1.114
		c-5.038,7.39-9.703,16.12-16.938,21.42c-3.67,2.68-8.293,3.18-10.843,6.77c-0.93,1.547-1.532,3.257-1.768,5.032
		c-0.234,1.774-0.099,3.575,0.4,5.298c0.519,1.722,1.403,3.322,2.595,4.699c1.191,1.376,2.666,2.5,4.33,3.301l2.229,1.08
		c0.564,0.946,1.009,1.953,1.326,3c0.596,2.042,0.741,4.181,0.425,6.28c-0.611,5.7-1.689,14,0.249,16
		c0.245,0.24,0.512,0.457,0.798,0.65c1.265,0.73,2.686,0.33,5.919,2.1c2.312,1.27,5.183,3.05,5.183,5.92
		c0.009,1.694-0.638,3.331-1.814,4.59c-0.901,0.91-5.076,0.829-4.288,1.819c3.027,3.79-0.16,2.834-0.75,3.344
		c1.831,3.602,4.894,7.555,5.073,11.563c0.043,3.744,0.48,7.323-0.812,10.855c-4.281,13.869-6.727,20.909-5.638,23.649
		c2.56,6.47,9.837,12.57,26.235,15.84c0.379,0.085,0.772,0.085,1.151,0c3.431-0.79,21.634-4.71,29.232,0.141
		c13.372,8.51,24.567,22.31,21.509,20.54c-0.4-0.246-0.723-0.594-0.933-1.005c-0.21-0.409-0.299-0.867-0.256-1.323
		c0.042-0.456,0.211-0.894,0.493-1.262c0.281-0.368,0.662-0.656,1.1-0.83l121.544-47.813c0.984-0.4,2.848-0.997,2.826-2.027
		c-0.248-14.449,9.164-45.859,13.642-58.6c4.571-13,12.999-24.3,18.658-36.82c13.84-30.71,8.293-66.56-6.457-96.05
		c-5.174-10.521-12.533-19.905-21.623-27.568c-9.088-7.664-19.712-13.444-31.212-16.982
		C343.125,262.23,313.986,265.15,285.896,269.72z"/>
	<path display="inline" fill="#FFFFFF" stroke="#010101" stroke-width="2" stroke-miterlimit="10" d="M218.09,469.648
		c0,0-19.006-7.63-26.083,4.288c-0.818,1.383-2.305,4.184-0.254,5.245c1.833,0.957,4.496,0.276,6.374-0.15
		c2.597-0.617,5.149-1.407,7.642-2.362c0.957-0.357,1.914-0.703,2.835-1.153c2.047-1.075,4.026-2.276,5.925-3.596l2.49-1.591
		C217.145,470.259,217.986,469.603,218.09,469.648z"/>
	<path display="inline" fill="#FFFFFF" stroke="#010101" stroke-width="2" stroke-miterlimit="10" d="M204.46,458.07
		c-3-1.65-12.19-6.8-15.3-3.76c-0.638,0.787-1.039,1.736-1.161,2.741c-0.122,1.004,0.041,2.023,0.471,2.939
		c0.663,1.233,1.772,2.167,3.1,2.61c8.381,3.11,26.801,7,26.801,7C214.47,464.945,209.757,461.039,204.46,458.07L204.46,458.07z"/>
	<path display="inline" fill="#FFFFFF" stroke="#010101" stroke-miterlimit="10" d="M188.09,431.93c0,0,7.87,6.6,14.899,3
		C203,434.91,202.14,427.46,188.09,431.93z"/>
	<path display="inline" fill="#FFFFFF" stroke="#010101" stroke-miterlimit="10" d="M187.5,420c-1.75,0.51-4.48,2-1.55,2.8
		c4.789,1.33,9.89,1.27,14.6,2.93c3.62,1.28,4.14,2.58,5.21,6c-0.271-0.85,0.76-2.88,0.56-4c-0.196-0.98-0.604-1.905-1.192-2.713
		c-0.588-0.808-1.346-1.479-2.217-1.967c-4.442-2.537-9.556-3.651-14.65-3.19C188.003,419.882,187.748,419.929,187.5,420z"/>
	<path display="inline" fill="none" stroke="#FFFFFF" stroke-width="2" stroke-linecap="round" stroke-miterlimit="10" d="
		M216.899,411.07c0,0,11.36,23-8.229,26.12"/>
	<path display="inline" fill="#F3EDED" stroke="#010101" stroke-width="9" stroke-miterlimit="10" d="M252.819,535l80.061-52.38
		c0,0-10.65-50.25,2.13-72.4c12.779-22.15,16.18-31.939,16.18-31.939L317.55,377l-18.311,43l-61.75,57.92c0,0-23.43,31.94-33.649,26
		c-22.215,8.83-3.465,37.455-3.465,37.455s12.292,0.875,22.958-0.5S252.819,535,252.819,535z"/>
	<path display="inline" fill="none" stroke="#F3F0F0" stroke-width="2" stroke-linecap="round" stroke-miterlimit="10" d="
		M355.489,387.48c0.065-3.933,1.438-7.733,3.9-10.8c6.61-8.32,20.08-21.39,27.61-2.68c10.22,25.55,8.939,71.54-43.87,72
		c0,0-9.79-2.56-3-14.06C346.51,421.16,355.14,413,355.489,387.48z"/>
	<path display="inline" fill="none" stroke="#F3F0F0" stroke-width="2" stroke-linecap="round" stroke-miterlimit="10" d="
		M363.529,391.43c0.131-2.747,0.995-5.409,2.5-7.71c2.75-4,8.38-7.52,12-6.3c7.25,2.46,11.79,25.86,1.28,40
		c-9.12,12.3-28.62,16.4-30.6,13.36c-0.115-0.219-0.182-0.461-0.191-0.708c-0.01-0.248,0.034-0.494,0.131-0.722
		C350.34,423.84,358,417,358,417S362.789,400.12,363.529,391.43z"/>
	<path display="inline" fill="#FFFFFF" d="M217.41,377.33c-1.04,0.001-2.051-0.347-2.869-0.989c-0.818-0.641-1.397-1.54-1.645-2.55
		s-0.146-2.074,0.283-3.021s1.166-1.722,2.09-2.2l17.95-9.32c0.885-0.46,1.895-0.621,2.88-0.46l27.58,7.77
		c2.53,0.41,4.75,0.93,3.88,2c-1.59,2-1.57,2.43-4.1,2l-27.33-2.41l-16.58,8.61C218.894,377.121,218.159,377.317,217.41,377.33
		L217.41,377.33z"/>
	<path display="inline" fill="none" stroke="#FFFFFF" stroke-linecap="round" stroke-miterlimit="10" d="M232,390.62
		c0,0,8.729,2.56,21.08-9.15"/>
	<path display="inline" fill="none" stroke="#FFFFFF" stroke-linecap="round" stroke-miterlimit="10" d="M229.819,377.21
		c0,0,21.721-1.92,34.92,6.17"/>
	<path display="inline" fill="none" stroke="#FFFFFF" stroke-linecap="round" stroke-miterlimit="10" d="M234.319,372.38
		c0,0,18.79,1.07,29,10.06"/>
	<path display="inline" fill="none" stroke="#FFFFFF" stroke-miterlimit="10" d="M234.41,380.63c-0.209,0.397-0.364,0.821-0.46,1.26
		c-0.436,1.877-0.123,3.849,0.869,5.5c0.172,0.345,0.413,0.65,0.712,0.893c0.299,0.243,0.646,0.419,1.019,0.517
		c0.714,0.043,1.42-0.162,2-0.58c1.038-0.5,1.894-1.311,2.45-2.32c0.207-0.554,0.288-1.148,0.237-1.738
		c-0.05-0.589-0.229-1.16-0.527-1.672c-0.92-1.75-3.311-4.63-5.48-2.91C234.889,379.872,234.609,380.229,234.41,380.63
		L234.41,380.63z"/>
	<path display="inline" fill="#FFFFFF" d="M350.34,436.85c-3,0-3,4.64,0,4.64S353.329,436.85,350.34,436.85z"/>
	<path display="inline" fill="#090909" d="M379.52,468.74l23.91,230.71l-0.71,83.32"/>
	<path display="inline" fill="#030303" d="M277.923,537.69c0,0-34.029,32.3-19.609,50.63c14.421,18.33,17.646,26.83,17.646,26.83
		L277.923,537.69"/>
	<path display="inline" fill="#010101" d="M548.109,874.66L396.76,627c-1.28-0.84,5.54,164.39-134.88,43.521L165.22,873.9"/>
	<path display="inline" fill="#030303" d="M273.091,607.5l-11.352,60.85c29.738,53.25,91.49,73.49,134.563,54.271
		c43.441-19.38,51.032-71.37,51.525-75.21c-34.653-39.599-51.609-88.993-50.085-140.521l-121.029,41.62L273.091,607.5z"/>
	<path display="inline" fill="#010101" d="M270.069,629.54c0,0-131.41,124.45-104.739,243.96L270.069,629.54z"/>
	<path display="inline" fill="#010101" d="M387.39,595.47c3-11.84,107.51,55.471,135,110.38
		c25.77,51.58,25.77,168.811,25.77,168.811S391.84,655.43,387.39,595.47z"/>
	<path display="inline" fill="#FFFFFF" d="M268.01,634.08l-2.56,36.62l-95.48,192.521L268.01,634.08z"/>
	<path display="inline" fill="#FFFFFF" d="M273.41,613l115.109-70.17c1.575,22.404,8.491,44.105,20.17,63.29
		c-21.86,3.22-45.15,7.4-69.609,12.85C314,624.56,290.63,630.8,269,637.33L273.41,613z"/>
	<path display="inline" fill="#FFFFFF" d="M345.829,457.43c0,0-0.09,0-0.1,0.05c0,0.41,11.87,5.61,22.5,2
		c9-3.05,15.5-11.86,17.39-22.34l-12.85,13.26C358.3,454.16,347.47,457,345.829,457.43z"/>
	<path display="inline" fill="none" stroke="#010101" stroke-width="11" stroke-miterlimit="10" d="M589.67,123.935H86.13v752.56
		h503.54V123.935z"/>
	<path display="inline" fill="#FFFFFF" d="M389.329,733.46l-17.09,133.28h67.63C439.869,866.74,438.34,783.84,389.329,733.46z"/>
	<path display="inline" fill="#FFFFFF" d="M193.545,442.304v8.01c0,0,30.205,9.375,33.705,25.375c3.5,16,4.083-9.228,2.583-11.708
		s-24.989-12.647-25.5-19.314L193.545,442.304z"/>
	<polygon display="inline" fill="#F3EDED" points="244.25,495.75 229.946,487.743 223.333,506.5 	"/>
</g>
<g id="Layer_3" display="none">
	<path display="inline" fill="#0C0C0C" d="M387.313,271.644l52.434,1.393l-27.03,33.633l56.138,50.815l-46.439,26.104l33.861,15.325
		l-36.4,17.286l3.087,18.082l7.901,46.146l-29.836-5.152l-4.443,41.249l-21.614,8.041L387.313,271.644z"/>
	<path display="inline" fill="#010101" d="M334.205,451.065c5.645,23.236,11.293,46.465,16.944,69.683
		c-88.853,28.831-157.229,29.144-172.516,0.947c-3.543-6.536-7.019-19.73,8.098-44.782l-1.349-10.114l5.505-6.336l-6.754-3.017
		l-0.717-5.377l-9.936-4.12l14.729-14.956l-23.319,0.095c-2.382,0.008-4.725-0.605-6.797-1.78c-2.073-1.175-3.804-2.869-5.022-4.917
		c-1.217-2.048-1.879-4.378-1.921-6.76c-0.042-2.382,0.538-4.733,1.683-6.822l22.486-40.936l-4.735-6.157
		c-0.886-1.155-1.437-2.531-1.592-3.978c-0.155-1.447,0.091-2.908,0.71-4.225l27.023-57.256c0,0-45.293,0.795-30.309-65.032
		l20.27,24.38l6.479-35.045l12.085,22.495l34.581-28.718l1.042,29.134l32.204-39.639l7.577,29.694l0.208-44.858
		c0,0,15.012,16.292,18.839,22.296s19.995-10.94,19.995-10.94l1.487,26.644c0,0,19.511-30.129,17.702-22.732
		c-1.81,7.397,12.418,25.204,12.418,25.204l15.154-16.604l-0.71,29.978c0,0,59.187-26.729,50.388-22.562
		c-5.237,2.492-19.994,73.595-19.994,73.595l55.692,10.125l-41.921,33.833l27.259,28.841l-24.114-0.625
		c0,0,7.814,23.755,5.74,32.725c-2.075,8.97-30.604-8.714-22.297-2.766c8.306,5.948,26.028,46.278,26.028,46.278
		s-26.01-13.26-25.668-5.484c0.341,7.776,12.086,30.935,9.054,27.676c-1.74-1.814-3.167-3.904-4.224-6.185l25.943,250.306
		l-0.776,90.388l-160.61,2.273l19.113-270.244l81.947,240.484l-11.156-254.72"/>
	<path display="inline" fill="#FFFFFF" stroke="#FFFFFF" stroke-miterlimit="10" d="M182.961,427.13c0,0,6.63,3.343,9.264,0.227
		l53.363-15.562c0.887-0.258,1.744-0.606,2.558-1.042l11.536-6.119l-67.608,17.209l-4.044-0.672
		C188.029,421.172,194.555,427.121,182.961,427.13z"/>
	<path display="inline" fill="#090909" d="M384.868,287.509c3.514-2.235,33.094-31.796,33.094-31.796l1.724,38.085l-0.379,15.817
		l-44.355,13.801l6.308-25.128L384.868,287.509z"/>
	<path display="inline" fill="#010101" d="M196.753,300.258c11.937-8.706,25.28-15.296,39.449-19.483
		c36.485-10.712,67.864-2.036,80.944,2.444c-40.13,55.797-41.428,86.808-33.984,105.041c1.534,3.789,2.841,5.361,4.035,9.888
		c9.358,36.542-34.211,93.504-74.836,89.488c-6.146-0.606-17.569-3.154-30.47-15.533l2.245,4.3
		c0.322,0.635-6.914,10.552-7.463,11.584c-3.893,7.293-7.843,16.291-6.63,24.768c4.3,30.017,48.504,35.329,72.259,34.762
		c37.271-0.881,77.383-14.645,112.419-26.521l-27.932-103.648c0,0,19.189-78.785,39.042-67.248
		c14.348,8.354,20.837,30.195,23.281,45.407c1.324,8.373,1.895,17.721-1.044,25.838c-3.029,8.382-15.088,11.233-15.058,19.938
		c0,4.461,2.453,8.572,5.36,11.962c11.85,13.829,30.006,17.589,46.506,22.959l-10.03-64.814l28.953-11.792l-26.955-16.149
		l44.517-26.757l-32.574-31.967l9.624-14.709"/>
	<path display="inline" fill="none" stroke="#FFFFFF" stroke-width="2" stroke-linecap="round" stroke-miterlimit="10" d="
		M196.753,300.258c11.937-8.706,25.28-15.296,39.449-19.483c36.485-10.712,67.864-2.036,80.944,2.444
		c-40.13,55.797-41.428,86.808-33.984,105.041c1.534,3.789,2.841,5.361,4.035,9.888c9.358,36.542-34.211,93.504-74.836,89.488
		c-6.146-0.606-17.569-3.154-30.47-15.533l2.245,4.3c0.322,0.635-6.914,10.552-7.463,11.584c-3.893,7.293-7.843,16.291-6.63,24.768
		c4.3,30.017,48.504,35.329,72.259,34.762c37.271-0.881,77.383-14.645,112.419-26.521l-27.932-103.648
		c0,0,19.189-78.785,39.042-67.248c14.348,8.354,20.837,30.195,23.281,45.407c1.324,8.373,1.895,17.721-1.044,25.838
		c-3.029,8.382-15.088,11.233-15.058,19.938c0,4.461,2.453,8.572,5.36,11.962c11.85,13.829,30.006,17.589,46.506,22.959
		l-10.03-64.814l28.953-11.792l-26.955-16.149l44.517-26.757l-32.574-31.967l9.624-14.709"/>
	<path display="inline" fill="#010101" d="M290.001,536.773c0,0-34.78,35.046-20.033,54.936
		c14.748,19.891,17.996,29.107,17.996,29.107L290.001,536.773z"/>
	<path display="inline" fill="#010101" d="M277.47,710.711L137.772,875.336l427.776,0.635L422.082,658.797
		C422.082,658.797,438.914,853.694,277.47,710.711z"/>
	<path display="inline" fill="none" stroke="#FFFFFF" stroke-width="2" stroke-linecap="round" stroke-miterlimit="10" d="
		M199.613,367.25c2.604,0.306,5.239,0.188,7.805-0.35c2.361-0.493,4.636-1.328,6.753-2.482"/>
	<path display="inline" fill="none" stroke="#FFFFFF" stroke-width="2" stroke-linecap="round" stroke-miterlimit="10" d="
		M232.508,366.445c0,0,4.063,5.892,17.409,5.048"/>
	<path display="inline" fill="none" stroke="#FFFFFF" stroke-width="2" stroke-linecap="round" stroke-miterlimit="10" d="
		M207.371,370.045l-7.255,6.63c0,0-2.52,1.837-2.093,1.724c1.563-0.426,8.344-3.173,11.498-1.506"/>
	<path display="inline" fill="none" stroke="#FFFFFF" stroke-width="2" stroke-linecap="round" stroke-miterlimit="10" d="
		M196.914,379.251c7.534,2.523,15.431,3.788,23.376,3.741c18.261-0.18,37.356-7.691,37.356-7.691"/>
	<path display="inline" fill="none" stroke="#FFFFFF" stroke-width="2" stroke-linecap="round" stroke-miterlimit="10" d="
		M216.586,367.25c-1.799,1.534-4.111,4.433-1.089,7.634c1.506,1.591,5.152,2.699,6.981,1.487c3.429-2.283,6.63-7.322-2.52-9.832
		c-0.577-0.166-1.187-0.188-1.774-0.064C217.596,366.6,217.047,366.866,216.586,367.25L216.586,367.25z"/>
	<path display="inline" fill="none" stroke="#FFFFFF" stroke-width="2" stroke-linecap="round" stroke-miterlimit="10" d="
		M204.16,360.308c0,0,5.304-19.379,37.318-2.557c32.014,16.821,17.618,13.525,17.618,13.525
		c0.625-0.947-30.035-11.451-38.541-13.516c-10.115-2.453-16.812,2.937-15.154,4.565"/>
	<path display="inline" fill="#010101" d="M173.424,451.415c1.97,4.547,6.63,7.445,11.507,8.524c4.878,1.08,9.87,0.597,14.804,0.114
		c-5.142-0.653-10.354,0.427-14.813,3.069c-1.374,0.814-2.841,2.453-1.961,3.789c0.56,0.852,1.744,0.947,2.766,0.994
		c4.665,0.039,9.313-0.531,13.829-1.695c2.216-0.568,4.736-1.714,5.049-3.978c0.302-2.5-2.529-3.931-4.793-5.01
		c-7.217-3.438-15.343-3.069-25.459-4.111"/>
	<path display="inline" fill="#FFFFFF" d="M172.714,451.643c1.895,4.148,5.683,6.886,9.935,8.25
		c5.475,1.761,11.366,1.184,16.983,0.644c0.521-0.057,1.193-0.777,0.331-0.89c-2.946-0.354-5.933-0.177-8.818,0.521
		c-2.742,0.549-5.33,1.697-7.577,3.362c-1.61,1.335-2.444,3.902,0.152,4.66c1.21,0.249,2.454,0.31,3.684,0.18
		c1.657,0,3.306-0.161,4.944-0.351c3.061-0.254,6.077-0.89,8.979-1.894c1.818-0.701,3.883-2.046,3.94-4.215
		c0.056-2.169-2.312-3.666-4.092-4.565c-2.205-1.113-4.536-1.955-6.943-2.51c-6.431-1.478-13.137-1.449-19.672-2.112
		c-0.598-0.057-1.431,0.795-0.512,0.89c8.941,0.947,18.678,0.379,26.776,4.84c1.629,0.89,3.637,2.359,2.908,4.499
		c-0.73,2.141-3.685,2.785-5.683,3.23c-2.723,0.624-5.49,1.033-8.278,1.222c-1.421,0.095-7.236,0.947-6.346-1.951
		c0.426-1.42,2.075-2.207,3.297-2.841c1.283-0.625,2.62-1.128,3.997-1.506c2.828-0.752,5.772-0.952,8.676-0.587l0.331-0.881
		c-5.285,0.511-10.807,1.08-15.979-0.493c-4.11-1.241-7.917-3.883-9.717-7.88c-0.246-0.54-1.601-0.133-1.374,0.36L172.714,451.643z"
		/>
	<path display="inline" fill="none" stroke="#FFFFFF" stroke-width="4" stroke-miterlimit="10" d="M347.91,386.023
		c0,0,16.103-31.72,26.758-13.696s0.672,40.103-16.414,45.17c0,0-4.368,18.849-21.785,12.02
		c-17.418-6.829,3.049-18.224,3.049-18.224C336.108,411.796,349.076,385.824,347.91,386.023z"/>
	<path display="inline" fill="#FFFFFF" stroke="#FFFFFF" stroke-miterlimit="10" d="M196.156,344.557
		c0.606,0.871,1.413,1.584,2.352,2.079c0.94,0.495,1.985,0.756,3.047,0.763c0.741-0.014,1.474-0.167,2.159-0.455
		c3.534-1.468,23.092-6.563,35.623-4.518c4.631,0.758,12.579,3.173,21.312,12.465c2.026-2.785-9.179-48.201-62.968-18.726
		C195.038,337.661,194.195,341.914,196.156,344.557z"/>
	<path display="inline" fill="#010101" stroke="#FFFFFF" stroke-miterlimit="10" d="M176.815,433.646l-2.955,14.7l6.137,3.618
		l23.679-4.641l17.428,16.102c-1.611-7.085-3.228-14.172-4.85-21.264l-12.313-10.722L176.815,433.646z"/>
	<path display="inline" fill="none" stroke="#F3EDED" stroke-width="2" stroke-miterlimit="10" d="M186.314,286.59
		c-10.419-3.135-14.321-8.042-16.026-11.366c-4.736-9.283-1.591-24.721-1.62-23.367l24.74,20.137l3.846-21.529l4.736,15.771
		l28.689-32.943l5.029,27.307l29.94-30.309l14.208,23.5l6.63-45.142l11.015,15.523l16.243-5.36l3.088,16.519l17.39-13.64
		l12.892,19.029l11.129-1.951l-0.418,17.588l41.184-19.066l-10.978,36.806l9.869,10.277l13.667-13.156l-0.653,27.525l11.867,12.606
		l12.191-0.947l-33.672,26.966c0,0,24.626,24.105,21.159,23.925c-3.467-0.18-19.217,3.931-19.217,3.931l9.632,33.663l-17.542-7.047"
		/>
	<path display="inline" fill="none" stroke="#FFFFFF" stroke-miterlimit="10" d="M186.731,476.922
		c-2.301,1.241-7.861,11.991-10.977,24.352c-1.096,3.968-1.197,8.146-0.294,12.161c3.382,13.117,20.165,19.143,27.818,21.879
		c20.837,7.464,45.464,4.584,66.851,1.611c27.8-3.855,54.481-9.642,80.368-20.621l-27.289-94.498
		c1.535-2.835,3.076-5.677,4.622-8.524"/>
	<path display="inline" fill="#FFFFFF" d="M297.351,739.77l64.104,59.557l59.625-73.594l77.969,122.08l-290.361-2.992
		L297.351,739.77z"/>
</g>
<g id="Layer_4" display="none">
	<path display="inline" fill="#010101" stroke="#FFFFFF" stroke-width="3" stroke-linecap="round" stroke-linejoin="round" d="
		M182.862,381.259c0,0-22.1,36.84-20,45.26s14.74,38.95,14.74,38.95c-4.48-2.31-22.65,14.5-25.561,17.12
		c-5.739,5.17-12.699,12.3-12.26,20.69c0.51,9.76,8.75,15.871,17.82,15.871c11.58,0-1,33.68-1,33.68
		c4.796,3.902,10.403,6.684,16.411,8.143c6.009,1.459,12.268,1.557,18.318,0.287c-6.189,1.23-12.68,1.471-18.93,2.529
		c-4.294,0.619-8.536,1.559-12.69,2.811c-2.76,0.91-6.17,1.84-3.47,4.709c3.45,3.65,7.75,6.262,11.94,8.941
		c2.77,1.77,8.649,5.889,7.479,9.859c-0.219,0.66-0.626,1.238-1.17,1.67c-5.3,4.66-11.5,18.939-9.47,29.48
		c2,10.17,11.439,16.119,12.63,16.84c24.521,14.939,70.47-10.561,70.47-10.561s-5.26,22.111,5.271,31.58
		c10.53,9.471,9.47,27.42,9.47,27.42s87.169,24.611,145.111-45.91l-14.58-45.689L182.862,381.259z"/>
	<path display="inline" fill="#010101" stroke="#FFFFFF" stroke-width="3" stroke-miterlimit="10" d="M166.592,389.04
		c0,0-31.82-31.8,48.18-77.07c0,0,267.609,106.54,228.669,200.229c-54.119,93.1-48,88.1-48,88.1S156.072,343.77,166.592,389.04z"/>
	<path display="inline" fill="#010101" d="M442.371,509.14c0,0,21.531-141.11-15.32-211.6c-36.85-70.49-220.999,25.27-220.999,25.27
		S487.242,414.129,442.371,509.14z"/>
	<path display="inline" fill="#FFFFFF" d="M233.832,440.589c0,0,49.141,59.57,39.83,77.6c-9.31,18.029-7.859,29-7.859,29l18.6-17.93
		l39.89,12.279l18,29.08l16.09-9l-6.199,25.611l14.301,58.059l9.27-14.75l1.32,13.691l7.469-22.842L400.281,608l15.33-34.311
		l-5.799,4.43L233.832,440.589z"/>
	<path display="inline" fill="#FFFFFF" d="M195.592,325.93c9.036-8.492,20.212-14.368,32.33-17
		c29.789,10.08,69.789,33.42,117.529,63.62c57.301,36.24,111.691,81.35,100,116.82C445.473,489.399,321.172,349.27,195.592,325.93z"
		/>
	<path display="inline" fill="#010101" stroke="#FFFFFF" stroke-width="3" stroke-miterlimit="10" d="M262.862,686.539
		L218.422,797.9l-104.561,77h473.269l-159.59-148.73l-19.568-85.541C407.973,640.629,375.182,747.539,262.862,686.539z"/>
	<path display="inline" fill="#FFFFFF" stroke="#FFFFFF" stroke-miterlimit="10" d="M193.392,468.6c0,0,1.62,8.78,9.26,8.34
		s15.73-12.48,15.73-12.48s-7.58-10.82-18.11-10.85c-10.53-0.03-8.46,2.85-8.46,2.85L193.392,468.6z"/>
	<path display="inline" fill="#010101" stroke="#FFFFFF" stroke-miterlimit="10" d="M180.482,439.06l4.37,9.24c0,0,29.57-4,34,3.83
		C218.852,452.129,219.142,434.709,180.482,439.06z"/>
	<path display="inline" fill="#010101" stroke="#FFFFFF" stroke-miterlimit="10" d="M191.812,456.459
		c-0.08,0.4-1.32,6.93,2.46,10.08c4.09,3.4,11.15,0.49,14.67-2.34c0.728-0.603,1.397-1.272,2-2L191.812,456.459z"/>
	<path display="inline" fill="#FFFFFF" d="M158.461,509.01c2.608,1.914,5.611,3.22,8.79,3.82c1.521,0.279,3.41,0.239,4.221-1.07
		c0.81-1.311,0.109-2.79-0.78-3.881c-1.011-1.234-2.328-2.184-3.82-2.75c-1.378-0.485-2.829-0.735-4.29-0.739
		c-1.002-0.081-2.009,0.087-2.93,0.489c-0.455,0.211-0.835,0.554-1.092,0.984c-0.257,0.43-0.378,0.926-0.349,1.426
		c0.19,1.351,1.681,2,3,2.49"/>
	<path display="inline" fill="none" stroke="#FFFFFF" stroke-width="6" stroke-linecap="round" stroke-miterlimit="10" d="
		M166.442,386.45c46.13,23.46,78.3,57.06,101.2,81c41.55,43.36,93.94,66.259,138.35,106.701c8.16,7.42,23.32-29.311,26.109-35.92
		c6.955-16.465,11.705-33.773,14.131-51.481"/>
	<path display="inline" fill="none" stroke="#FFFFFF" stroke-width="5" stroke-linecap="round" stroke-linejoin="round" d="
		M142.292,863.939l82.55-58.471l41-115.799c0,0,83.339,38.26,138.82-40.6l10.1,95.27l139.811,119.6H142.292"/>
	<path display="inline" fill="#FFFFFF" d="M404.154,279.421c-4.891-1.78-10.66,24.79-10.66,24.79l26.439-12.4
		C416.1,286.131,410.582,281.798,404.154,279.421L404.154,279.421z"/>
	<path display="inline" fill="none" stroke="#010101" stroke-width="2" stroke-linecap="round" stroke-linejoin="round" d="
		M407.512,569.67l-8.711,33l-18,18.189l-3.059,12.84l-1.52-7.939l-8.871,11.311l-7.629-54.42c0.619-5.461,1.549-10.842,2.189-16.291
		c0.26-2.17,1.16-5.4,0.23-7.459c-2.631,0.449-17.91,8.898-19.391,6.629l-16.67-25.539l-40.06-16l-18.26,18.93
		c4.479-4.861,14.63-24.58,9.09-41.25c-3.641-11-11.07-21.8-17.58-31.24c-8.12-11.76-17.55-24.49-29.46-32.6
		c-11.655-7.958-23.982-14.884-36.84-20.7c-11.16-5-24.46-10.36-36.95-8.58"/>
	<path display="inline" fill="none" stroke="#010101" stroke-width="4" stroke-linecap="round" stroke-linejoin="round" d="
		M180.692,400.24c-3.71-1.47-20.7-15.34-32.07-11.19"/>
	<path display="inline" fill="none" stroke="#010101" stroke-width="4" stroke-linecap="round" stroke-linejoin="round" d="
		M156.052,398.54c0,0,13.699-1.29,24.43,12.08"/>
</g>
<g id="Layer_5">
	<path fill="#010101" stroke="#FFFFFF" stroke-width="0.75" stroke-miterlimit="10" d="M420.285,421.929
		c-9.939,11-15.18,25.5-23.799,37.53l28.199,63.291l-99.05,101.119l-13.759-37.83l-27.479-38.529
		c-17.2-6.881-27.511-34.391-27.511-34.391c-41.149-4.73-56.279-16.61-61.72-23.58c-1.017-1.338-1.648-2.929-1.825-4.601
		c-0.177-1.671,0.109-3.359,0.825-4.879l5-11l-6.189-7.56l-0.931-1.459c-0.371-0.584-0.574-1.258-0.59-1.95
		c-0.015-0.692,0.16-1.374,0.504-1.974c0.346-0.6,0.849-1.094,1.453-1.428c0.606-0.335,1.292-0.497,1.984-0.469l4,0.17l-12-10.061
		l3.439-18.569l-13.84-5.281c-0.781-0.297-1.487-0.762-2.066-1.364c-0.58-0.601-1.021-1.323-1.289-2.114
		c-0.27-0.791-0.359-1.632-0.266-2.462c0.095-0.83,0.371-1.628,0.811-2.34l29-47c0,0-1.379-2.75-4.82-11
		c-3.44-8.25,11-25.45,11-25.45c31-78.42,99.75-79.12,101.809-79.11c33.77,0.2,72.111,5.7,96.221,31.84
		c10.409,11.28,22.27,24.87,29,38.33C436.396,319.869,466.785,370.639,420.285,421.929z"/>
	<path fill="#B8982F" d="M182.316,418.65c0,0,8.31-3.801,12.161,3.9c0.459,0.909-0.92,0-0.92,0S190.576,427.589,182.316,418.65z"/>
	<path fill="none" stroke="#FFFFFF" stroke-linecap="round" stroke-miterlimit="10" d="M203.396,409.399c0,0,4.59,13.53,0.46,17"/>
	<path fill="none" stroke="#FFFFFF" stroke-linecap="round" stroke-miterlimit="10" d="M208.456,374.159
		c1.231,0.771,17.74,13.15,23.7,13.15"/>
	<path fill="none" stroke="#FFFFFF" stroke-linecap="round" stroke-miterlimit="10" d="M208.456,380.809
		c4.477-0.275,8.959,0.406,13.151,2"/>
	<path fill="#016847" d="M205.856,365.449c0,0,18,4.63,22,8.11c0.166,0.135,0.314,0.285,0.45,0.45
		c2.9,3.52-3.83-14.831-20.33-16.511C208.005,357.499,200.816,356.869,205.856,365.449z"/>
	<path fill="#AAB838" stroke="#010101" stroke-width="4" stroke-linecap="round" stroke-miterlimit="10" d="M232.847,293.369
		c0.139,0.62,41.3-8.29,41.3-8.29s4.59,32.71-9.481,50.141c0,0-4.889,24.759,20.491,23.85l-3.37,37.6l-5.81,13.76
		c0,0,31.949-0.15,33.409-4.21c0.301-1.22,14.9-21.17,25.29-19c13.69-6.19,62.3,8.79,21.94,58c17.27,7.13,23.309,15.33,40.59,22.469
		c-1.07-2.6-0.31-5.89-1.38-8.49l34.399-49.53c8.299-11.823,13.5-25.538,15.13-39.89c1.9-17.44-2.22-30.72-4.59-38.07
		c-13.59-42.24-50.779-64.31-54.569-66.489c-47.21-27.181-105.58-17.341-133,4.81c-7.941,6.41-23.89,23.9-23,24.92
		C230.396,295.289,232.816,293.219,232.847,293.369z"/>
	<path fill="none" stroke="#FFFFFF" stroke-miterlimit="10" d="M330.906,399.39c0,0,17.88-16.511,26.14-1.84
		c8.26,14.669,4.18,35.899-11.471,44.489c-5.629,3.09-10.879,7.85-16.94,10c-3.699,1.321-8.069,1.37-11.349-0.81
		c-1.221-0.755-2.151-1.901-2.64-3.25c-1.87-6,6.89-14.23,10.76-17.86C325.396,430.109,322.646,404.869,330.906,399.39z"/>
	<path fill="#016847" stroke="#010101" stroke-width="2" stroke-miterlimit="10" d="M333.876,407.409c0,0,12.59-11.62,18.4-1.29
		c5.81,10.331,2.95,25.29-8.07,31.33c-4,2.18-7.67,5.53-11.93,7c-1.288,0.522-2.679,0.744-4.067,0.644
		c-1.387-0.099-2.732-0.514-3.933-1.214c-0.866-0.527-1.522-1.335-1.86-2.29c-1.331-4.239,4.851-10,7.57-12.579
		C329.996,429.05,328.056,411.289,333.876,407.409z"/>
	<path fill="#016847" d="M208.005,499.36c0,0,14.67,11.919,48.841,13.759l-1.841-11.469
		C239.452,505.494,223.113,504.699,208.005,499.36z"/>
	<path fill="#010101" stroke="#FFFFFF" stroke-width="0.75" stroke-miterlimit="10" d="M327.756,627l-44,154l-89.49,93.9
		l381.459-1.461c0,0,30.811-245-129.109-316.91l-27.88-63.09l-129.13,79.28L327.756,627z"/>
	<path fill="#038895" d="M294.676,575.49l36.08,47.389l107-69.398l-19.26-50.451L294.676,575.49z"/>
	<path fill="#05A44D" d="M506.546,630.52l-184.81,225.859l-97-0.689l69.48-59.16l46.78-166.469l103.18-60.08
		C444.176,569.98,492.336,598.868,506.546,630.52z"/>
	<path fill="#B8982F" d="M513.886,637.869l-176.56,217.82h218.75C556.076,855.689,578.546,701.141,513.886,637.869z"/>
	<path fill="#010101" stroke="#AAB838" stroke-width="2" stroke-linecap="round" stroke-miterlimit="10" d="M315.466,454.089
		c0,0,5,6.93,10.39,3.24c-1.689,0.029-3.374-0.19-5-0.649C318.925,456.13,317.103,455.254,315.466,454.089L315.466,454.089z"/>
</g>
<g id="Layer_1">
	<path fill="none" stroke="#010101" stroke-width="11" stroke-miterlimit="10" d="M589.67,123.935H86.13v752.56h503.54V123.935z"/>
</g>
</svg>
