<?xml version="1.0" encoding="utf-8"?>
<!-- Generator: Adobe Illustrator 16.0.0, SVG Export Plug-In . SVG Version: 6.00 Build 0)  -->
<!DOCTYPE svg PUBLIC "-//W3C//DTD SVG 1.1//EN" "http://www.w3.org/Graphics/SVG/1.1/DTD/svg11.dtd">
<svg version="1.1" xmlns="http://www.w3.org/2000/svg" xmlns:xlink="http://www.w3.org/1999/xlink" x="0px" y="0px" width="675px"
	 height="1000px" viewBox="0 0 675 1000" enable-background="new 0 0 675 1000" xml:space="preserve">
<g id="Layer_1">
</g>
<g id="Layer_2">
	<path fill="#010101" d="M285.896,269.72c-9.723,1.58-19.042,5.61-29.792,12.771c-27.366,18.24-35.876,47.08-38.572,58.89
		c-0.117,0.551-0.429,1.045-0.881,1.4c-4.212,3.264-7.625,7.386-9.992,12.07c-5.536,11,0.766,25.22,2.768,30.12
		c0.151,0.374,0.206,0.777,0.161,1.176c-0.046,0.398-0.189,0.781-0.42,1.114c-5.038,7.39-9.703,16.12-16.938,21.42
		c-3.67,2.68-8.293,3.18-10.843,6.77c-0.93,1.547-1.532,3.257-1.768,5.032c-0.234,1.774-0.099,3.575,0.4,5.298
		c0.519,1.722,1.403,3.322,2.595,4.699c1.191,1.376,2.666,2.5,4.33,3.301l2.229,1.08c0.564,0.946,1.009,1.953,1.326,3
		c0.596,2.042,0.741,4.181,0.425,6.28c-0.611,5.7-1.689,14,0.249,16c0.245,0.24,0.512,0.457,0.798,0.65
		c1.265,0.73,2.686,0.33,5.919,2.1c2.312,1.27,5.183,3.05,5.183,5.92c0.009,1.694-0.638,3.331-1.814,4.59
		c-0.901,0.91-5.076,0.829-4.288,1.819c3.027,3.79-0.16,2.834-0.75,3.344c1.831,3.602,4.894,7.555,5.073,11.563
		c0.043,3.744,0.48,7.323-0.812,10.855c-4.281,13.869-6.727,20.909-5.638,23.649c2.56,6.47,9.837,12.57,26.235,15.84
		c0.379,0.085,0.772,0.085,1.151,0c3.431-0.79,21.634-4.71,29.232,0.141c13.372,8.51,24.567,22.31,21.509,20.54
		c-0.4-0.246-0.723-0.594-0.933-1.005c-0.21-0.409-0.299-0.867-0.256-1.323c0.042-0.456,0.211-0.894,0.493-1.262
		c0.281-0.368,0.662-0.656,1.1-0.83l121.544-47.813c0.984-0.4,2.848-0.997,2.826-2.027c-0.248-14.449,9.164-45.859,13.642-58.6
		c4.571-13,12.999-24.3,18.658-36.82c13.84-30.71,8.293-66.56-6.457-96.05c-5.174-10.521-12.533-19.905-21.623-27.568
		c-9.088-7.664-19.712-13.444-31.212-16.982C343.125,262.23,313.986,265.15,285.896,269.72z"/>
	<path fill="#FFFFFF" stroke="#010101" stroke-width="2" stroke-miterlimit="10" d="M218.09,469.648c0,0-19.006-7.63-26.083,4.288
		c-0.818,1.383-2.305,4.184-0.254,5.245c1.833,0.957,4.496,0.276,6.374-0.15c2.597-0.617,5.149-1.407,7.642-2.362
		c0.957-0.357,1.914-0.703,2.835-1.153c2.047-1.075,4.026-2.276,5.925-3.596l2.49-1.591
		C217.145,470.259,217.986,469.603,218.09,469.648z"/>
	<path fill="#FFFFFF" stroke="#010101" stroke-width="2" stroke-miterlimit="10" d="M204.46,458.07c-3-1.65-12.19-6.8-15.3-3.76
		c-0.638,0.787-1.039,1.736-1.161,2.741c-0.122,1.004,0.041,2.023,0.471,2.939c0.663,1.233,1.772,2.167,3.1,2.61
		c8.381,3.11,26.801,7,26.801,7C214.47,464.945,209.757,461.039,204.46,458.07L204.46,458.07z"/>
	<path fill="#FFFFFF" stroke="#010101" stroke-miterlimit="10" d="M188.09,431.93c0,0,7.87,6.6,14.899,3
		C203,434.91,202.14,427.46,188.09,431.93z"/>
	<path fill="#FFFFFF" stroke="#010101" stroke-miterlimit="10" d="M187.5,420c-1.75,0.51-4.48,2-1.55,2.8
		c4.789,1.33,9.89,1.27,14.6,2.93c3.62,1.28,4.14,2.58,5.21,6c-0.271-0.85,0.76-2.88,0.56-4c-0.196-0.98-0.604-1.905-1.192-2.713
		c-0.588-0.808-1.346-1.479-2.217-1.967c-4.442-2.537-9.556-3.651-14.65-3.19C188.003,419.882,187.748,419.929,187.5,420z"/>
	<path fill="none" stroke="#FFFFFF" stroke-width="2" stroke-linecap="round" stroke-miterlimit="10" d="M216.899,411.07
		c0,0,11.36,23-8.229,26.12"/>
	<path fill="#F3EDED" stroke="#010101" stroke-width="9" stroke-miterlimit="10" d="M252.819,535l80.061-52.38
		c0,0-10.65-50.25,2.13-72.4c12.779-22.15,16.18-31.939,16.18-31.939L317.55,377l-18.311,43l-61.75,57.92c0,0-23.43,31.94-33.649,26
		c-22.215,8.83-3.465,37.455-3.465,37.455s12.292,0.875,22.958-0.5S252.819,535,252.819,535z"/>
	<path fill="none" stroke="#F3F0F0" stroke-width="2" stroke-linecap="round" stroke-miterlimit="10" d="M355.489,387.48
		c0.065-3.933,1.438-7.733,3.9-10.8c6.61-8.32,20.08-21.39,27.61-2.68c10.22,25.55,8.939,71.54-43.87,72c0,0-9.79-2.56-3-14.06
		C346.51,421.16,355.14,413,355.489,387.48z"/>
	<path fill="none" stroke="#F3F0F0" stroke-width="2" stroke-linecap="round" stroke-miterlimit="10" d="M363.529,391.43
		c0.131-2.747,0.995-5.409,2.5-7.71c2.75-4,8.38-7.52,12-6.3c7.25,2.46,11.79,25.86,1.28,40c-9.12,12.3-28.62,16.4-30.6,13.36
		c-0.115-0.219-0.182-0.461-0.191-0.708c-0.01-0.248,0.034-0.494,0.131-0.722C350.34,423.84,358,417,358,417
		S362.789,400.12,363.529,391.43z"/>
	<path fill="#FFFFFF" d="M217.41,377.33c-1.04,0.001-2.051-0.347-2.869-0.989c-0.818-0.641-1.397-1.54-1.645-2.55
		s-0.146-2.074,0.283-3.021s1.166-1.722,2.09-2.2l17.95-9.32c0.885-0.46,1.895-0.621,2.88-0.46l27.58,7.77
		c2.53,0.41,4.75,0.93,3.88,2c-1.59,2-1.57,2.43-4.1,2l-27.33-2.41l-16.58,8.61C218.894,377.121,218.159,377.317,217.41,377.33
		L217.41,377.33z"/>
	<path fill="none" stroke="#FFFFFF" stroke-linecap="round" stroke-miterlimit="10" d="M232,390.62c0,0,8.729,2.56,21.08-9.15"/>
	<path fill="none" stroke="#FFFFFF" stroke-linecap="round" stroke-miterlimit="10" d="M229.819,377.21c0,0,21.721-1.92,34.92,6.17"
		/>
	<path fill="none" stroke="#FFFFFF" stroke-linecap="round" stroke-miterlimit="10" d="M234.319,372.38c0,0,18.79,1.07,29,10.06"/>
	<path fill="none" stroke="#FFFFFF" stroke-miterlimit="10" d="M234.41,380.63c-0.209,0.397-0.364,0.821-0.46,1.26
		c-0.436,1.877-0.123,3.849,0.869,5.5c0.172,0.345,0.413,0.65,0.712,0.893c0.299,0.243,0.646,0.419,1.019,0.517
		c0.714,0.043,1.42-0.162,2-0.58c1.038-0.5,1.894-1.311,2.45-2.32c0.207-0.554,0.288-1.148,0.237-1.738
		c-0.05-0.589-0.229-1.16-0.527-1.672c-0.92-1.75-3.311-4.63-5.48-2.91C234.889,379.872,234.609,380.229,234.41,380.63
		L234.41,380.63z"/>
	<path fill="#FFFFFF" d="M350.34,436.85c-3,0-3,4.64,0,4.64S353.329,436.85,350.34,436.85z"/>
	<path fill="#090909" d="M379.52,468.74l23.91,230.71l-0.71,83.32"/>
	<path fill="#030303" d="M277.923,537.69c0,0-34.029,32.3-19.609,50.63c14.421,18.33,17.646,26.83,17.646,26.83L277.923,537.69"/>
	<path fill="#010101" d="M548.109,874.66L396.76,627c-1.28-0.84,5.54,164.39-134.88,43.521L165.22,873.9"/>
	<path fill="#030303" d="M273.091,607.5l-11.352,60.85c29.738,53.25,91.49,73.49,134.563,54.271
		c43.441-19.38,51.032-71.37,51.525-75.21c-34.653-39.599-51.609-88.993-50.085-140.521l-121.029,41.62L273.091,607.5z"/>
	<path fill="#010101" d="M270.069,629.54c0,0-131.41,124.45-104.739,243.96L270.069,629.54z"/>
	<path fill="#010101" d="M387.39,595.47c3-11.84,107.51,55.471,135,110.38c25.77,51.58,25.77,168.811,25.77,168.811
		S391.84,655.43,387.39,595.47z"/>
	<path fill="#FFFFFF" d="M268.01,634.08l-2.56,36.62l-95.48,192.521L268.01,634.08z"/>
	<path fill="#FFFFFF" d="M273.41,613l115.109-70.17c1.575,22.404,8.491,44.105,20.17,63.29c-21.86,3.22-45.15,7.4-69.609,12.85
		C314,624.56,290.63,630.8,269,637.33L273.41,613z"/>
	<path fill="#FFFFFF" d="M345.829,457.43c0,0-0.09,0-0.1,0.05c0,0.41,11.87,5.61,22.5,2c9-3.05,15.5-11.86,17.39-22.34l-12.85,13.26
		C358.3,454.16,347.47,457,345.829,457.43z"/>
	<path fill="none" stroke="#010101" stroke-width="11" stroke-miterlimit="10" d="M589.67,123.935H86.13v752.56h503.54V123.935z"/>
	<path fill="#FFFFFF" d="M389.329,733.46l-17.09,133.28h67.63C439.869,866.74,438.34,783.84,389.329,733.46z"/>
	<path fill="#FFFFFF" d="M193.545,442.304v8.01c0,0,30.205,9.375,33.705,25.375c3.5,16,4.083-9.228,2.583-11.708
		s-24.989-12.647-25.5-19.314L193.545,442.304z"/>
	<polygon fill="#F3EDED" points="244.25,495.75 229.946,487.743 223.333,506.5 	"/>
</g>
</svg>
